<mxfile host="Electron" agent="Mozilla/5.0 (Windows NT 10.0; Win64; x64) AppleWebKit/537.36 (KHTML, like Gecko) draw.io/26.0.9 Chrome/128.0.6613.186 Electron/32.2.5 Safari/537.36" version="26.0.9">
  <diagram name="Data Flow Diagram" id="tsn20rtRuq3Z2wO6vqB2">
    <mxGraphModel dx="1363" dy="1349" grid="0" gridSize="10" guides="1" tooltips="1" connect="1" arrows="1" fold="1" page="0" pageScale="1" pageWidth="827" pageHeight="1169" math="0" shadow="0">
      <root>
        <mxCell id="0" />
        <mxCell id="1" parent="0" />
        <mxCell id="By14PTBqK2mJS9pY_BCQ-1" value="" style="rounded=0;whiteSpace=wrap;html=1;fillColor=none;dashed=1;" parent="1" vertex="1">
          <mxGeometry x="100" y="70" width="180" height="540" as="geometry" />
        </mxCell>
        <mxCell id="By14PTBqK2mJS9pY_BCQ-2" value="&lt;font style=&quot;font-size: 24px;&quot;&gt;&lt;b&gt;Sources&lt;/b&gt;&lt;/font&gt;" style="rounded=1;whiteSpace=wrap;html=1;strokeColor=none;" parent="1" vertex="1">
          <mxGeometry x="130" y="40" width="120" height="60" as="geometry" />
        </mxCell>
        <mxCell id="By14PTBqK2mJS9pY_BCQ-18" style="edgeStyle=orthogonalEdgeStyle;rounded=0;orthogonalLoop=1;jettySize=auto;html=1;entryX=0;entryY=0.5;entryDx=0;entryDy=0;" parent="1" source="By14PTBqK2mJS9pY_BCQ-3" target="By14PTBqK2mJS9pY_BCQ-10" edge="1">
          <mxGeometry relative="1" as="geometry" />
        </mxCell>
        <mxCell id="By14PTBqK2mJS9pY_BCQ-19" style="edgeStyle=orthogonalEdgeStyle;rounded=0;orthogonalLoop=1;jettySize=auto;html=1;entryX=0;entryY=0.5;entryDx=0;entryDy=0;" parent="1" source="By14PTBqK2mJS9pY_BCQ-3" target="By14PTBqK2mJS9pY_BCQ-9" edge="1">
          <mxGeometry relative="1" as="geometry">
            <Array as="points">
              <mxPoint x="290" y="268" />
              <mxPoint x="290" y="208" />
            </Array>
          </mxGeometry>
        </mxCell>
        <mxCell id="By14PTBqK2mJS9pY_BCQ-20" style="edgeStyle=orthogonalEdgeStyle;rounded=0;orthogonalLoop=1;jettySize=auto;html=1;entryX=0;entryY=0.5;entryDx=0;entryDy=0;" parent="1" source="By14PTBqK2mJS9pY_BCQ-3" target="By14PTBqK2mJS9pY_BCQ-11" edge="1">
          <mxGeometry relative="1" as="geometry">
            <Array as="points">
              <mxPoint x="290" y="268" />
              <mxPoint x="290" y="328" />
            </Array>
          </mxGeometry>
        </mxCell>
        <mxCell id="By14PTBqK2mJS9pY_BCQ-3" value="&lt;font style=&quot;font-size: 24px;&quot;&gt;&lt;b&gt;CRM&lt;/b&gt;&lt;/font&gt;" style="image;aspect=fixed;html=1;points=[];align=center;fontSize=12;image=img/lib/azure2/general/Folder_Blank.svg;" parent="1" vertex="1">
          <mxGeometry x="155.5" y="240" width="69" height="56.00000000000001" as="geometry" />
        </mxCell>
        <mxCell id="By14PTBqK2mJS9pY_BCQ-21" style="edgeStyle=orthogonalEdgeStyle;rounded=0;orthogonalLoop=1;jettySize=auto;html=1;entryX=0;entryY=0.5;entryDx=0;entryDy=0;" parent="1" source="By14PTBqK2mJS9pY_BCQ-6" target="By14PTBqK2mJS9pY_BCQ-13" edge="1">
          <mxGeometry relative="1" as="geometry" />
        </mxCell>
        <mxCell id="By14PTBqK2mJS9pY_BCQ-22" style="edgeStyle=orthogonalEdgeStyle;rounded=0;orthogonalLoop=1;jettySize=auto;html=1;entryX=0;entryY=0.5;entryDx=0;entryDy=0;" parent="1" source="By14PTBqK2mJS9pY_BCQ-6" target="By14PTBqK2mJS9pY_BCQ-12" edge="1">
          <mxGeometry relative="1" as="geometry">
            <Array as="points">
              <mxPoint x="290" y="472" />
              <mxPoint x="290" y="412" />
            </Array>
          </mxGeometry>
        </mxCell>
        <mxCell id="By14PTBqK2mJS9pY_BCQ-23" style="edgeStyle=orthogonalEdgeStyle;rounded=0;orthogonalLoop=1;jettySize=auto;html=1;entryX=0;entryY=0.5;entryDx=0;entryDy=0;" parent="1" source="By14PTBqK2mJS9pY_BCQ-6" target="By14PTBqK2mJS9pY_BCQ-14" edge="1">
          <mxGeometry relative="1" as="geometry">
            <Array as="points">
              <mxPoint x="290" y="472" />
              <mxPoint x="290" y="532" />
            </Array>
          </mxGeometry>
        </mxCell>
        <mxCell id="By14PTBqK2mJS9pY_BCQ-6" value="&lt;font style=&quot;font-size: 24px;&quot;&gt;&lt;b&gt;ERP&lt;/b&gt;&lt;/font&gt;" style="image;aspect=fixed;html=1;points=[];align=center;fontSize=12;image=img/lib/azure2/general/Folder_Blank.svg;" parent="1" vertex="1">
          <mxGeometry x="155.25" y="444" width="69" height="56.00000000000001" as="geometry" />
        </mxCell>
        <mxCell id="By14PTBqK2mJS9pY_BCQ-7" value="" style="rounded=1;whiteSpace=wrap;html=1;fillColor=default;strokeColor=#d79b00;fillStyle=hatch;" parent="1" vertex="1">
          <mxGeometry x="350" y="140" width="200" height="470" as="geometry" />
        </mxCell>
        <mxCell id="By14PTBqK2mJS9pY_BCQ-8" value="&lt;font style=&quot;font-size: 24px;&quot;&gt;&lt;b&gt;Bronze Layer&lt;/b&gt;&lt;/font&gt;" style="rounded=1;whiteSpace=wrap;html=1;fillColor=#ffe6cc;strokeColor=#d79b00;" parent="1" vertex="1">
          <mxGeometry x="350" y="70" width="200" height="60" as="geometry" />
        </mxCell>
        <mxCell id="uXVKhXvK3lmZ2qDpr9pq-9" style="edgeStyle=orthogonalEdgeStyle;rounded=0;orthogonalLoop=1;jettySize=auto;html=1;entryX=0;entryY=0.5;entryDx=0;entryDy=0;" parent="1" source="By14PTBqK2mJS9pY_BCQ-9" target="uXVKhXvK3lmZ2qDpr9pq-3" edge="1">
          <mxGeometry relative="1" as="geometry" />
        </mxCell>
        <mxCell id="By14PTBqK2mJS9pY_BCQ-9" value="&lt;font style=&quot;font-size: 14px;&quot;&gt;&lt;b style=&quot;&quot;&gt;crm_sales_details&lt;/b&gt;&lt;/font&gt;" style="rounded=1;whiteSpace=wrap;html=1;fillColor=#ffe6cc;strokeColor=#d79b00;" parent="1" vertex="1">
          <mxGeometry x="368" y="186" width="160" height="44" as="geometry" />
        </mxCell>
        <mxCell id="uXVKhXvK3lmZ2qDpr9pq-10" style="edgeStyle=orthogonalEdgeStyle;rounded=0;orthogonalLoop=1;jettySize=auto;html=1;entryX=0;entryY=0.5;entryDx=0;entryDy=0;" parent="1" source="By14PTBqK2mJS9pY_BCQ-10" target="uXVKhXvK3lmZ2qDpr9pq-4" edge="1">
          <mxGeometry relative="1" as="geometry" />
        </mxCell>
        <mxCell id="By14PTBqK2mJS9pY_BCQ-10" value="&lt;font style=&quot;font-size: 14px;&quot;&gt;&lt;b style=&quot;&quot;&gt;crm_cust_info&lt;/b&gt;&lt;/font&gt;" style="rounded=1;whiteSpace=wrap;html=1;fillColor=#ffe6cc;strokeColor=#d79b00;" parent="1" vertex="1">
          <mxGeometry x="368" y="246" width="160" height="44" as="geometry" />
        </mxCell>
        <mxCell id="uXVKhXvK3lmZ2qDpr9pq-11" style="edgeStyle=orthogonalEdgeStyle;rounded=0;orthogonalLoop=1;jettySize=auto;html=1;entryX=0;entryY=0.5;entryDx=0;entryDy=0;" parent="1" source="By14PTBqK2mJS9pY_BCQ-11" target="uXVKhXvK3lmZ2qDpr9pq-5" edge="1">
          <mxGeometry relative="1" as="geometry" />
        </mxCell>
        <mxCell id="By14PTBqK2mJS9pY_BCQ-11" value="&lt;font style=&quot;font-size: 14px;&quot;&gt;&lt;b style=&quot;&quot;&gt;crm_prd_info&lt;/b&gt;&lt;/font&gt;" style="rounded=1;whiteSpace=wrap;html=1;fillColor=#ffe6cc;strokeColor=#d79b00;" parent="1" vertex="1">
          <mxGeometry x="368" y="305" width="160" height="45" as="geometry" />
        </mxCell>
        <mxCell id="uXVKhXvK3lmZ2qDpr9pq-12" style="edgeStyle=orthogonalEdgeStyle;rounded=0;orthogonalLoop=1;jettySize=auto;html=1;entryX=0;entryY=0.5;entryDx=0;entryDy=0;" parent="1" source="By14PTBqK2mJS9pY_BCQ-12" target="uXVKhXvK3lmZ2qDpr9pq-6" edge="1">
          <mxGeometry relative="1" as="geometry" />
        </mxCell>
        <mxCell id="By14PTBqK2mJS9pY_BCQ-12" value="&lt;font style=&quot;font-size: 14px;&quot;&gt;&lt;b style=&quot;&quot;&gt;erp_cust_az12&lt;/b&gt;&lt;/font&gt;" style="rounded=1;whiteSpace=wrap;html=1;fillColor=#ffe6cc;strokeColor=#d79b00;" parent="1" vertex="1">
          <mxGeometry x="368" y="390" width="160" height="44" as="geometry" />
        </mxCell>
        <mxCell id="uXVKhXvK3lmZ2qDpr9pq-13" style="edgeStyle=orthogonalEdgeStyle;rounded=0;orthogonalLoop=1;jettySize=auto;html=1;entryX=0;entryY=0.5;entryDx=0;entryDy=0;" parent="1" source="By14PTBqK2mJS9pY_BCQ-13" target="uXVKhXvK3lmZ2qDpr9pq-7" edge="1">
          <mxGeometry relative="1" as="geometry" />
        </mxCell>
        <mxCell id="By14PTBqK2mJS9pY_BCQ-13" value="&lt;font style=&quot;font-size: 14px;&quot;&gt;&lt;b style=&quot;&quot;&gt;erp_loc_a101&lt;/b&gt;&lt;/font&gt;" style="rounded=1;whiteSpace=wrap;html=1;fillColor=#ffe6cc;strokeColor=#d79b00;" parent="1" vertex="1">
          <mxGeometry x="368" y="450" width="160" height="44" as="geometry" />
        </mxCell>
        <mxCell id="uXVKhXvK3lmZ2qDpr9pq-14" style="edgeStyle=orthogonalEdgeStyle;rounded=0;orthogonalLoop=1;jettySize=auto;html=1;entryX=0;entryY=0.5;entryDx=0;entryDy=0;" parent="1" source="By14PTBqK2mJS9pY_BCQ-14" target="uXVKhXvK3lmZ2qDpr9pq-8" edge="1">
          <mxGeometry relative="1" as="geometry" />
        </mxCell>
        <mxCell id="By14PTBqK2mJS9pY_BCQ-14" value="&lt;font style=&quot;font-size: 14px;&quot;&gt;&lt;b style=&quot;&quot;&gt;erp_px_cat_g1v2&lt;/b&gt;&lt;/font&gt;" style="rounded=1;whiteSpace=wrap;html=1;fillColor=#ffe6cc;strokeColor=#d79b00;" parent="1" vertex="1">
          <mxGeometry x="368" y="509" width="160" height="45" as="geometry" />
        </mxCell>
        <mxCell id="By14PTBqK2mJS9pY_BCQ-24" value="&lt;font style=&quot;font-size: 38px;&quot;&gt;&lt;b style=&quot;&quot;&gt;Data Flow Diagram&lt;/b&gt;&lt;/font&gt;" style="text;html=1;align=left;verticalAlign=middle;whiteSpace=wrap;rounded=0;" parent="1" vertex="1">
          <mxGeometry x="100" y="-19" width="444.75" height="30" as="geometry" />
        </mxCell>
        <mxCell id="uXVKhXvK3lmZ2qDpr9pq-1" value="" style="rounded=1;whiteSpace=wrap;html=1;fillColor=#f5f5f5;strokeColor=#666666;fillStyle=hatch;fontColor=#333333;" parent="1" vertex="1">
          <mxGeometry x="610" y="140" width="195.25" height="470" as="geometry" />
        </mxCell>
        <mxCell id="uXVKhXvK3lmZ2qDpr9pq-2" value="&lt;font style=&quot;font-size: 24px;&quot;&gt;&lt;b&gt;Silver Layer&lt;/b&gt;&lt;/font&gt;" style="rounded=1;whiteSpace=wrap;html=1;fillColor=#f5f5f5;strokeColor=#666666;fontColor=#333333;" parent="1" vertex="1">
          <mxGeometry x="610" y="70" width="195.25" height="60" as="geometry" />
        </mxCell>
        <mxCell id="xW62JJWEFytMNbHUo4-5-9" style="edgeStyle=orthogonalEdgeStyle;rounded=0;orthogonalLoop=1;jettySize=auto;html=1;" parent="1" source="uXVKhXvK3lmZ2qDpr9pq-3" target="xW62JJWEFytMNbHUo4-5-3" edge="1">
          <mxGeometry relative="1" as="geometry" />
        </mxCell>
        <mxCell id="uXVKhXvK3lmZ2qDpr9pq-3" value="&lt;font style=&quot;font-size: 14px;&quot;&gt;&lt;b style=&quot;&quot;&gt;crm_sales_details&lt;/b&gt;&lt;/font&gt;" style="rounded=1;whiteSpace=wrap;html=1;fillColor=#f5f5f5;strokeColor=#666666;fontColor=#333333;" parent="1" vertex="1">
          <mxGeometry x="628" y="186" width="160" height="44" as="geometry" />
        </mxCell>
        <mxCell id="xW62JJWEFytMNbHUo4-5-10" style="rounded=0;orthogonalLoop=1;jettySize=auto;html=1;entryX=0;entryY=0.5;entryDx=0;entryDy=0;exitX=1;exitY=0.5;exitDx=0;exitDy=0;jumpStyle=gap;" parent="1" source="uXVKhXvK3lmZ2qDpr9pq-4" target="xW62JJWEFytMNbHUo4-5-4" edge="1">
          <mxGeometry relative="1" as="geometry" />
        </mxCell>
        <mxCell id="uXVKhXvK3lmZ2qDpr9pq-4" value="&lt;font style=&quot;font-size: 14px;&quot;&gt;&lt;b style=&quot;&quot;&gt;crm_cust_info&lt;/b&gt;&lt;/font&gt;" style="rounded=1;whiteSpace=wrap;html=1;fillColor=#f5f5f5;strokeColor=#666666;fontColor=#333333;" parent="1" vertex="1">
          <mxGeometry x="628" y="246" width="160" height="44" as="geometry" />
        </mxCell>
        <mxCell id="uXVKhXvK3lmZ2qDpr9pq-5" value="&lt;font style=&quot;font-size: 14px;&quot;&gt;&lt;b style=&quot;&quot;&gt;crm_prd_info&lt;/b&gt;&lt;/font&gt;" style="rounded=1;whiteSpace=wrap;html=1;fillColor=#f5f5f5;strokeColor=#666666;fontColor=#333333;" parent="1" vertex="1">
          <mxGeometry x="628" y="305" width="160" height="45" as="geometry" />
        </mxCell>
        <mxCell id="uXVKhXvK3lmZ2qDpr9pq-6" value="&lt;font style=&quot;font-size: 14px;&quot;&gt;&lt;b style=&quot;&quot;&gt;erp_cust_az12&lt;/b&gt;&lt;/font&gt;" style="rounded=1;whiteSpace=wrap;html=1;fillColor=#f5f5f5;strokeColor=#666666;fontColor=#333333;" parent="1" vertex="1">
          <mxGeometry x="628" y="390" width="160" height="44" as="geometry" />
        </mxCell>
        <mxCell id="uXVKhXvK3lmZ2qDpr9pq-7" value="&lt;font style=&quot;font-size: 14px;&quot;&gt;&lt;b style=&quot;&quot;&gt;erp_loc_a101&lt;/b&gt;&lt;/font&gt;" style="rounded=1;whiteSpace=wrap;html=1;fillColor=#f5f5f5;strokeColor=#666666;fontColor=#333333;" parent="1" vertex="1">
          <mxGeometry x="628" y="450" width="160" height="44" as="geometry" />
        </mxCell>
        <mxCell id="uXVKhXvK3lmZ2qDpr9pq-8" value="&lt;font style=&quot;font-size: 14px;&quot;&gt;&lt;b style=&quot;&quot;&gt;erp_px_cat_g1v2&lt;/b&gt;&lt;/font&gt;" style="rounded=1;whiteSpace=wrap;html=1;fillColor=#f5f5f5;strokeColor=#666666;fontColor=#333333;" parent="1" vertex="1">
          <mxGeometry x="628" y="509" width="160" height="45" as="geometry" />
        </mxCell>
        <mxCell id="xW62JJWEFytMNbHUo4-5-1" value="" style="rounded=1;whiteSpace=wrap;html=1;fillColor=#fff2cc;strokeColor=#d6b656;fillStyle=hatch;" parent="1" vertex="1">
          <mxGeometry x="870" y="140" width="195.25" height="470" as="geometry" />
        </mxCell>
        <mxCell id="xW62JJWEFytMNbHUo4-5-2" value="&lt;font style=&quot;font-size: 24px;&quot;&gt;&lt;b&gt;Gold Layer&lt;/b&gt;&lt;/font&gt;" style="rounded=1;whiteSpace=wrap;html=1;fillColor=#fff2cc;strokeColor=#d6b656;" parent="1" vertex="1">
          <mxGeometry x="870" y="70" width="195.25" height="60" as="geometry" />
        </mxCell>
        <mxCell id="xW62JJWEFytMNbHUo4-5-3" value="&lt;font style=&quot;font-size: 14px;&quot;&gt;&lt;b style=&quot;&quot;&gt;fact_sales&lt;/b&gt;&lt;/font&gt;" style="rounded=1;whiteSpace=wrap;html=1;fillColor=#fff2cc;strokeColor=#d6b656;" parent="1" vertex="1">
          <mxGeometry x="887.63" y="186" width="160" height="44" as="geometry" />
        </mxCell>
        <mxCell id="xW62JJWEFytMNbHUo4-5-4" value="&lt;font style=&quot;font-size: 14px;&quot;&gt;&lt;b style=&quot;&quot;&gt;dimension_customers&lt;/b&gt;&lt;/font&gt;" style="rounded=1;whiteSpace=wrap;html=1;fillColor=#fff2cc;strokeColor=#d6b656;" parent="1" vertex="1">
          <mxGeometry x="887.63" y="340" width="160" height="44" as="geometry" />
        </mxCell>
        <mxCell id="xW62JJWEFytMNbHUo4-5-5" value="&lt;font style=&quot;font-size: 14px;&quot;&gt;&lt;b style=&quot;&quot;&gt;dimension_products&lt;/b&gt;&lt;/font&gt;" style="rounded=1;whiteSpace=wrap;html=1;fillColor=#fff2cc;strokeColor=#d6b656;" parent="1" vertex="1">
          <mxGeometry x="887.63" y="399" width="160" height="45" as="geometry" />
        </mxCell>
        <mxCell id="xW62JJWEFytMNbHUo4-5-12" style="rounded=0;orthogonalLoop=1;jettySize=auto;html=1;entryX=0;entryY=0.5;entryDx=0;entryDy=0;exitX=1;exitY=0.5;exitDx=0;exitDy=0;jumpStyle=gap;" parent="1" source="uXVKhXvK3lmZ2qDpr9pq-6" target="xW62JJWEFytMNbHUo4-5-4" edge="1">
          <mxGeometry relative="1" as="geometry">
            <mxPoint x="798" y="278" as="sourcePoint" />
            <mxPoint x="898" y="372" as="targetPoint" />
          </mxGeometry>
        </mxCell>
        <mxCell id="xW62JJWEFytMNbHUo4-5-13" style="rounded=0;orthogonalLoop=1;jettySize=auto;html=1;entryX=0;entryY=0.5;entryDx=0;entryDy=0;exitX=1;exitY=0.5;exitDx=0;exitDy=0;jumpStyle=gap;" parent="1" source="uXVKhXvK3lmZ2qDpr9pq-7" target="xW62JJWEFytMNbHUo4-5-4" edge="1">
          <mxGeometry relative="1" as="geometry">
            <mxPoint x="798" y="422" as="sourcePoint" />
            <mxPoint x="898" y="372" as="targetPoint" />
          </mxGeometry>
        </mxCell>
        <mxCell id="xW62JJWEFytMNbHUo4-5-14" style="rounded=0;orthogonalLoop=1;jettySize=auto;html=1;entryX=0;entryY=0.5;entryDx=0;entryDy=0;exitX=1;exitY=0.5;exitDx=0;exitDy=0;jumpStyle=gap;" parent="1" source="uXVKhXvK3lmZ2qDpr9pq-8" target="xW62JJWEFytMNbHUo4-5-5" edge="1">
          <mxGeometry relative="1" as="geometry">
            <mxPoint x="808" y="432" as="sourcePoint" />
            <mxPoint x="908" y="382" as="targetPoint" />
          </mxGeometry>
        </mxCell>
        <mxCell id="xW62JJWEFytMNbHUo4-5-15" style="rounded=0;orthogonalLoop=1;jettySize=auto;html=1;entryX=0;entryY=0.5;entryDx=0;entryDy=0;exitX=1;exitY=0.5;exitDx=0;exitDy=0;jumpStyle=gap;" parent="1" source="uXVKhXvK3lmZ2qDpr9pq-5" target="xW62JJWEFytMNbHUo4-5-5" edge="1">
          <mxGeometry relative="1" as="geometry">
            <mxPoint x="818" y="442" as="sourcePoint" />
            <mxPoint x="918" y="392" as="targetPoint" />
          </mxGeometry>
        </mxCell>
      </root>
    </mxGraphModel>
  </diagram>
</mxfile>
